<?xml version="1.0" standalone="no"?><!DOCTYPE svg PUBLIC "-//W3C//DTD SVG 1.1//EN" "http://www.w3.org/Graphics/SVG/1.1/DTD/svg11.dtd"><svg t="1697644984050" class="icon" viewBox="0 0 1024 1024" version="1.1" xmlns="http://www.w3.org/2000/svg" p-id="8543" xmlns:xlink="http://www.w3.org/1999/xlink" width="200" height="200"><path d="M757.76 197.176889l86.414222 230.001778 107.747556 46.08c82.432 31.118222 104.903111 135.964444 10.24 157.411555-56.092444 12.743111-110.648889 23.04-164.579556 30.947556-13.539556 156.672-57.059556 291.498667-173.909333 209.692444-45.738667-28.672-79.473778-69.347556-119.751111-69.347555-40.220444 0-145.976889 119.466667-209.578667 89.088-52.451556-23.779556-72.704-139.264-79.530667-233.016889a2932.053333 2932.053333 0 0 1-152.917333-27.136C17.749333 622.08-7.395556 574.919111 1.934222 541.411556c9.386667-33.564444 31.687111-56.604444 60.245334-67.527112L178.631111 426.666667c34.417778-92.672 62.577778-167.992889 84.366222-226.076445 32.711111-87.04 118.840889-87.04 171.804445-44.373333 27.306667 22.016 45.340444 40.675556 68.494222 41.130667 23.04 0.455111 45.283556-19.171556 73.841778-41.130667 55.182222-42.666667 135.281778-42.837333 180.622222 40.903111z m-175.900444 521.102222c-14.222222 12.231111-21.276444 24.519111 19.228444 49.322667 96.256 41.927111 108.316444-68.152889 106.097778-79.758222-4.437333-7.566222-110.990222 18.204444-125.326222 30.435555z m-286.094223-30.72c-0.568889 26.624 15.36 119.296 106.097778 79.815111 48.64-29.809778 26.282667-43.52 18.147556-50.232889-35.726222-16.896-119.808-37.091556-124.245334-29.582222z m327.907556-463.132444c-26.567111 20.366222-83.512889 53.930667-119.751111 53.930666-36.181333 0-83.911111-34.645333-108.885334-53.930666-25.031111-19.285333-44.088889-9.614222-53.191111 6.371555-6.030222 10.695111-38.627556 97.792-97.848889 261.233778-48.753778 19.569778-97.450667 39.310222-146.204444 59.164444 300.999111 58.254222 536.917333 62.577778 823.352889 1.308445L778.410667 491.52l-97.28-258.503111c-8.874667-19.114667-30.890667-29.013333-57.457778-8.647111z" fill="#141414" p-id="8544"></path></svg>